<svg xmlns="http://www.w3.org/2000/svg" width="150" height="50" viewBox="0,0,150,50"><rect width="100%" height="100%" fill="#FFFFFF"/><path d="M17 37 C58 21,82 11,133 41" stroke="#8f8fe4" fill="none"/><path fill="#60e080" d="M56.38 40.14L56.38 40.15L54.08 33.39L54.08 33.40Q51.58 26.40 48.67 21.31L48.67 21.31Q46.26 17.10 43.57 14.20L43.57 14.20L43.74 14.37L43.77 14.40L43.74 14.37L48.23 15.93L48.36 16.07L48.32 16.02Q50.68 18.91 52.88 23.22L52.88 23.22Q55.40 28.17 57.72 34.98L57.72 34.98L57.70 34.96L57.74 35.00L57.87 35.13Q59.14 31.81 60.01 29.59L60.01 29.59Q61.25 26.41 61.65 25.47L61.65 25.47L61.59 25.41L61.66 25.48L61.55 25.37Q62.91 22.27 64.39 19.87L64.39 19.87Q65.56 17.97 66.81 16.50L66.81 16.50L66.82 16.51L66.81 16.51L66.70 16.39L71.37 15.13L71.40 15.16L63.84 27.05L63.83 27.04L63.82 27.03Q63.17 28.59 62.10 31.27L62.10 31.27Q60.72 34.75 58.64 40.12L58.64 40.12L58.70 40.18L58.63 40.12L58.67 40.16Q58.42 40.17 58.16 40.17L58.16 40.17Q57.87 40.17 57.56 40.15L57.56 40.15L57.49 40.08L57.43 40.02L57.51 40.10Q57.21 40.11 56.90 40.12L56.90 40.12Q56.65 40.14 56.38 40.15L56.38 40.15ZM61.48 42.66L61.43 42.61L61.37 42.55L65.78 28.58L65.75 28.54L65.72 28.52Q67.13 25.01 68.82 22.08L68.82 22.08Q70.81 18.64 73.19 16.00L73.19 16.00L73.12 15.92L73.16 15.96Q72.59 16.23 71.63 16.60L71.63 16.60Q70.96 16.85 70.11 17.15L70.11 17.15L70.15 17.19L71.28 15.83L71.29 15.84L71.17 15.73Q71.43 15.48 71.68 15.23L71.68 15.23Q72.06 14.86 72.42 14.47L72.42 14.47L72.44 14.48L72.49 14.54L66.50 15.93L66.59 16.02L66.57 16.00Q64.22 18.91 62.00 23.61L62.00 23.61Q60.13 27.58 58.35 32.83L58.35 32.83L58.23 32.71L58.18 32.66L58.27 32.75L51.54 18.37L51.41 18.24L51.44 18.27L50.19 18.05L50.14 17.99L48.46 15.71L48.47 15.72L48.47 15.72L42.68 13.46L42.78 13.56Q46.34 17.37 49.25 22.81L49.25 22.81Q51.77 27.53 53.81 33.46L53.81 33.46L53.63 33.29L53.64 33.30L53.78 33.44Q54.25 34.89 54.73 36.34L54.73 36.34Q55.43 38.49 56.14 40.63L56.14 40.63L56.13 40.62L56.15 40.64L57.26 40.50L57.39 40.62L57.41 40.65Q57.53 40.95 57.78 41.48L57.78 41.48Q58.00 41.93 58.31 42.54L58.31 42.54L58.46 42.69L58.41 42.64L58.44 42.66L59.89 42.55L59.84 42.50Q60.27 42.61 60.66 42.67L60.66 42.67Q61.15 42.75 61.57 42.75L61.57 42.75"/><path fill="#da47da" d="M26.77 40.14L26.77 40.14L24.35 33.27L24.48 33.39L24.44 33.36Q22.61 28.09 20.50 23.91L20.50 23.91Q17.56 18.06 14.10 14.34L14.10 14.34L14.07 14.30L14.01 14.25L14.04 14.27Q15.07 14.81 16.26 15.23L16.26 15.23Q17.36 15.61 18.60 15.91L18.60 15.91L18.65 15.95L18.63 15.94L18.78 16.08Q21.58 19.51 24.16 24.94L24.16 24.94Q26.24 29.34 28.19 35.05L28.19 35.05L28.21 35.07L28.08 34.94L28.11 34.97L31.98 25.40L32.05 25.47L31.97 25.39L37.08 16.38L37.12 16.42L41.73 15.09L41.74 15.10L34.29 27.10L34.30 27.11L34.18 26.99L29.01 40.09L29.01 40.10L28.04 40.23L27.90 40.08Q27.66 40.08 27.43 40.09L27.43 40.09Q27.09 40.10 26.75 40.12L26.75 40.12ZM31.92 42.70L31.78 42.56L31.91 42.69L31.85 42.63L36.12 28.51L36.19 28.58Q37.90 23.96 40.15 20.36L40.15 20.36Q41.70 17.89 43.50 15.90L43.50 15.90L43.64 16.05L43.69 16.10Q43.03 16.17 42.15 16.41L42.15 16.41Q41.34 16.62 40.34 16.97L40.34 16.97L40.51 17.14L41.08 16.47L41.61 15.77L41.59 15.75Q41.82 15.46 42.06 15.19L42.06 15.19Q42.40 14.79 42.76 14.41L42.76 14.41L42.71 14.36L42.73 14.38L36.93 15.96L36.93 15.96L36.91 15.94Q34.73 18.65 32.67 22.91L32.67 22.91Q30.63 27.10 28.71 32.79L28.71 32.79L28.69 32.77L28.76 32.84L21.86 18.29L21.87 18.30L20.71 18.16L20.65 18.11L18.79 15.63L18.80 15.65L18.82 15.67Q17.24 15.27 15.74 14.69L15.74 14.69Q14.39 14.17 13.12 13.51L13.12 13.51L13.13 13.51L13.21 13.60L24.17 33.43L24.23 33.49L24.14 33.39Q24.61 34.85 25.09 36.29L25.09 36.29Q25.80 38.45 26.51 40.60L26.51 40.60L26.51 40.60L26.58 40.67L26.56 40.65Q26.70 40.63 27.00 40.59L27.00 40.59Q27.27 40.55 27.66 40.50L27.66 40.50L27.83 40.67L27.76 40.60L28.69 42.51L28.74 42.57L30.33 42.59L30.35 42.61L30.34 42.60"/><path d="M13 20 C70 36,95 10,132 19" stroke="#d84469" fill="none"/><path fill="#e9a35c" d="M82.05 33.04L81.96 32.95L82.01 33.00L82.02 33.01Q83.27 32.84 84.54 32.76L84.54 32.76Q86.38 32.64 88.27 32.71L88.27 32.71L88.32 32.76L88.24 32.68Q88.16 31.54 88.11 30.45L88.11 30.45Q88.04 28.96 88.04 27.57L88.04 27.57L88.28 27.81L88.30 27.83L88.23 27.76L88.47 22.79L88.42 22.73L88.44 22.76ZM91.83 40.27L91.77 40.21L91.77 40.21L91.85 40.29L88.38 39.90L88.47 40.00L88.39 39.92Q88.33 38.60 88.26 37.23L88.26 37.23Q88.21 36.21 88.17 35.16L88.17 35.16L88.08 35.08L88.01 35.01L77.98 36.24L77.98 36.24L78.06 36.32Q78.11 36.09 78.17 35.77L78.17 35.77Q78.25 35.37 78.36 34.83L78.36 34.83L78.38 34.85L78.24 34.71L78.27 34.74Q79.38 33.12 80.96 30.49L80.96 30.49Q82.25 28.34 83.86 25.52L83.86 25.52L83.72 25.39L83.81 25.47Q85.00 23.37 86.30 21.46L86.30 21.46Q88.07 18.87 90.04 16.63L90.04 16.63L90.11 16.70L90.02 16.61L89.99 16.58Q90.56 16.54 91.35 16.44L91.35 16.44Q91.95 16.36 92.67 16.25L92.67 16.25L92.63 16.21L92.67 16.25L92.62 16.20Q91.45 19.99 90.97 24.02L90.97 24.02Q90.65 26.76 90.65 29.61L90.65 29.61L90.71 29.67L90.77 29.73L90.66 29.62L90.82 32.68L91.44 32.71L92.01 32.69L92.06 32.74L92.11 32.78L93.34 32.95L93.27 32.88L93.20 32.81Q93.31 33.40 93.44 34.26L93.44 34.26Q93.54 34.95 93.66 35.81L93.66 35.81L93.75 35.91L93.70 35.86L93.67 35.83Q93.18 35.76 92.63 35.68L92.63 35.68Q91.91 35.58 91.07 35.48L91.07 35.48L91.02 35.42L90.92 35.32L90.96 35.36Q91.10 36.38 91.34 37.59L91.34 37.59Q91.59 38.88 91.95 40.39L91.95 40.39ZM93.48 32.44L93.59 32.55L93.57 32.53Q93.51 32.53 93.44 32.53L93.44 32.53Q93.36 32.53 93.26 32.53L93.26 32.53L93.10 32.37L92.89 32.35L92.79 32.44L92.82 32.47L92.73 32.37Q92.74 31.79 92.74 31.20L92.74 31.20Q92.75 30.42 92.75 29.62L92.75 29.62L92.60 29.47L92.61 29.47L94.75 17.15L94.77 17.17L92.53 17.79L92.56 17.81Q92.66 17.35 92.85 16.70L92.85 16.70Q92.99 16.20 93.19 15.59L93.19 15.59L93.13 15.53L93.08 15.48L93.11 15.51L89.82 16.18L89.87 16.23L89.86 16.22L80.66 29.86L81.74 28.06L82.73 26.18L82.81 26.26L82.72 26.17Q82.55 26.63 82.40 27.00L82.40 27.00Q82.20 27.47 82.05 27.79L82.05 27.79L82.22 27.95L77.69 36.90L77.73 36.94L77.70 36.92Q77.96 36.78 78.37 36.62L78.37 36.62Q78.79 36.45 79.37 36.26L79.37 36.26L79.43 36.32L79.32 36.59L79.26 36.53L79.36 36.64L78.97 38.60L78.96 38.59Q81.03 37.86 83.32 37.56L83.32 37.56Q85.47 37.27 87.82 37.36L87.82 37.36L87.89 37.44L87.76 37.30Q87.83 37.86 87.91 38.68L87.91 38.68Q87.99 39.40 88.08 40.32L88.08 40.32L88.00 40.24L88.09 40.33L88.09 40.34Q88.54 40.28 89.02 40.28L89.02 40.28Q89.55 40.28 90.11 40.34L90.11 40.34L90.15 40.38L90.21 40.44L90.66 42.52L90.61 42.48L90.51 42.38L95.60 43.70L95.56 43.66Q95.06 42.55 94.56 41.10L94.56 41.10Q94.13 39.83 93.71 38.30L93.71 38.30L93.56 38.15L94.29 38.39L95.04 38.64L95.09 38.69L95.10 38.71L96.42 39.23L96.34 39.14L96.36 39.17L95.58 35.14L95.61 35.18L95.48 35.05Q95.28 35.02 94.95 34.96L94.95 34.96Q94.51 34.88 93.85 34.75L93.85 34.75L93.74 34.65L93.85 34.76ZM85.60 32.40L85.47 32.27L85.52 32.32L85.54 32.34L87.85 28.48L87.94 28.57L87.90 28.54L87.79 30.37L87.89 30.46L87.90 30.48L87.91 32.39L87.98 32.46L87.85 32.33L86.75 32.34L86.77 32.36L86.63 32.21"/><path d="M8 24 C94 1,92 27,139 47" stroke="#6dedcd" fill="none"/><path fill="#96e24a" d="M124.09 40.36L124.07 40.34L124.02 40.29L124.01 40.28Q122.82 38.71 121.67 36.27L121.67 36.27Q120.08 32.91 118.56 27.90L118.56 27.90L118.48 27.82L118.48 27.82Q118.20 26.87 117.89 25.91L117.89 25.91Q117.51 24.76 117.07 23.60L117.07 23.60L116.98 23.51L115.45 27.80L114.09 32.26L114.10 32.28L114.15 32.32L110.03 40.58L110.02 40.56L107.51 40.76L107.55 40.80L107.47 40.72Q107.51 40.11 107.53 39.48L107.53 39.48Q107.55 38.87 107.55 38.25L107.55 38.25L107.60 38.30L107.52 38.22L107.52 38.21L104.84 26.14L104.74 26.03L104.76 26.05L95.96 14.36L95.91 14.31L95.80 14.20L100.44 15.57L100.29 15.41L110.26 34.83L110.33 34.90L110.41 34.98Q111.27 33.19 112.09 30.82L112.09 30.82Q112.80 28.77 113.47 26.27L113.47 26.27L113.44 26.25L113.53 26.33L113.44 26.24Q114.47 22.18 115.09 19.89L115.09 19.89Q115.62 17.92 115.85 17.27L115.85 17.27L115.86 17.28L117.02 17.32L118.04 17.22L118.21 17.38L118.19 17.37L119.50 21.68L120.79 26.17L120.66 26.04L123.78 34.88L123.63 34.73Q124.40 29.71 126.34 25.48L126.34 25.48Q128.85 20.01 133.32 15.86L133.32 15.86L133.23 15.77L133.33 15.87L133.35 15.89Q134.22 15.74 135.50 15.48L135.50 15.48Q136.57 15.27 137.92 14.98L137.92 14.98L137.75 14.81L137.76 14.82Q135.05 17.11 132.92 19.87L132.92 19.87Q130.96 22.42 129.50 25.36L129.50 25.36L129.31 25.17L129.31 25.17Q127.90 28.05 127.14 31.03L127.14 31.03Q126.24 34.54 126.24 38.21L126.24 38.21L126.29 38.26L126.27 38.24L126.30 38.26Q126.30 38.90 126.32 39.55L126.32 39.55Q126.34 40.03 126.37 40.51L126.37 40.51L126.46 40.59L125.76 40.41L125.20 40.37L125.30 40.46Q124.87 40.33 124.50 40.28L124.50 40.28Q124.21 40.23 123.96 40.23L123.96 40.23ZM130.33 43.25L130.38 43.30L130.45 43.37L130.44 43.36L129.19 35.79L129.26 35.86L138.92 16.01L139.02 16.12L136.05 16.81L136.12 16.87L136.11 16.86L138.91 14.18L138.79 14.06L133.21 15.34L133.17 15.29L133.22 15.34L123.98 32.10L123.97 32.09L120.48 18.94L120.48 18.93L120.38 18.83L119.14 19.04L118.76 17.90L118.80 17.94Q118.67 17.58 118.55 17.28L118.55 17.28Q118.45 17.02 118.34 16.80L118.34 16.80L118.41 16.86L115.49 16.84L115.60 16.95L115.64 16.98L113.51 24.52L113.51 24.53L113.42 24.44L111.18 32.05L111.09 31.97L111.12 32.00L104.13 17.93L104.00 17.79L102.64 17.61L102.57 17.54L100.23 15.02L100.20 14.98L100.32 15.10Q98.69 14.76 97.33 14.40L97.33 14.40Q95.97 14.02 94.88 13.62L94.88 13.62L94.73 13.47L94.80 13.55Q97.54 15.79 99.72 18.44L99.72 18.44Q101.94 21.15 103.59 24.28L103.59 24.28L103.76 24.45L103.68 24.36L103.66 24.35L107.13 37.98L107.12 37.97Q107.18 38.81 107.16 39.62L107.16 39.62Q107.15 40.45 107.05 41.25L107.05 41.25L106.98 41.18L106.93 41.13L107.00 41.20Q107.15 41.23 107.36 41.21L107.36 41.21Q107.53 41.19 107.73 41.15L107.73 41.15L107.73 41.15L107.69 41.11L107.57 40.99Q107.81 40.99 107.98 40.99L107.98 40.99Q108.22 40.98 108.35 40.98L108.35 40.98L108.34 40.98L108.41 42.08L108.33 41.99L108.45 43.03L108.40 42.98L108.37 42.95Q109.05 42.92 110.10 42.86L110.10 42.86Q110.86 42.81 111.82 42.75L111.82 42.75L111.94 42.86L111.80 42.73Q113.54 40.16 115.07 36.67L115.07 36.67Q116.75 32.86 118.18 27.94L118.18 27.94L118.27 28.03L118.27 28.03L118.27 28.03Q119.62 32.30 121.01 35.43L121.01 35.43Q122.48 38.73 124.00 40.77L124.00 40.77L123.89 40.65L123.89 40.65L123.98 40.75L125.35 40.94L125.39 40.97L125.30 40.89Q125.71 41.38 126.16 41.88L126.16 41.88Q126.66 42.44 127.23 43.00L127.23 43.00L127.20 42.98L127.11 42.89"/></svg>